<svg width="290" height="260" viewBox="0 0 290 260" fill="none" xmlns="http://www.w3.org/2000/svg">
<path d="M233.56 141.857L52.055 142.172C45.5913 142.486 42.6414 129.092 49.4088 129.092L236.206 130.306C242.93 130.261 240.284 141.857 233.56 141.857Z" fill="#F4F2F4"/>
<path d="M235.035 232.515H51.7514C47.0663 232.2 42.6415 220.963 49.4089 220.963L237.378 219.75C242.67 219.435 241.759 232.829 235.035 232.515Z" fill="#F4F2F4"/>
<path d="M76.7388 232.2L77.0424 239.212C77.0424 243.122 82.0312 243.167 82.8988 239.212L84.2003 231.706C84.1569 227.795 76.7388 228.29 76.7388 232.2Z" fill="#F4F2F4"/>
<path d="M206.534 230.672L207.401 239.212C208.009 243.482 213.258 243.122 213.258 239.212V233.144C213.301 229.189 206.534 226.761 206.534 230.672Z" fill="#F4F2F4"/>
<path d="M75.2637 138.171L77.0423 144.868C77.9099 148.509 82.8987 148.779 82.8987 144.868V138.8C82.8987 134.89 75.2637 134.261 75.2637 138.171Z" fill="#F4F2F4"/>
<path d="M206.837 137.272L207.445 144.868C207.445 148.779 213.301 148.779 213.301 144.868L213.908 137.587C213.865 133.677 206.837 133.362 206.837 137.272Z" fill="#F4F2F4"/>
<path d="M281.323 179.882L281.93 216.559C281.974 217.772 280.976 218.761 279.805 218.716C270.955 218.222 237.465 216.424 225.318 216.424C211.22 216.424 210.352 178.713 210.352 178.713L270.261 183.568L278.416 178.084C279.761 177.365 281.323 178.354 281.323 179.882Z" fill="black"/>
<path d="M193.911 153.813C193.911 153.813 234.862 153.723 236.207 156.33C239.721 163.072 236.164 216.109 233.865 218.671C231.435 221.368 200.809 220.244 193.521 218.671C189.573 217.817 192.74 157.588 193.911 153.813Z" fill="#B9FF1F"/>
<path d="M223.366 172.601C227.531 167.611 231.739 162.577 235.903 157.588C236.901 156.42 235.166 154.757 234.168 155.97C226.794 164.825 219.419 173.634 212.044 182.489C211.697 182.893 211.654 183.523 211.914 183.972C219.289 194.804 225.535 206.266 230.698 218.356C231.305 219.795 233.561 219.031 232.91 217.592C228.399 206.985 223.106 196.827 216.903 187.208C214.69 183.837 214.864 182.803 217.423 179.702C219.462 177.32 221.414 174.938 223.366 172.601Z" fill="#FF2B93"/>
<path d="M217.944 174.758C210.526 167.836 203.108 160.959 195.646 154.038C194.518 153.004 192.87 154.712 193.998 155.745L216.295 176.466C217.38 177.5 219.072 175.792 217.944 174.758Z" fill="#FF2B93"/>
<path d="M216.599 189.501C209.007 198.4 201.416 207.299 193.824 216.199C192.826 217.368 194.475 219.076 195.473 217.907C203.064 209.007 210.656 200.108 218.247 191.209C219.245 190.04 217.597 188.332 216.599 189.501Z" fill="#FF2B93"/>
<path d="M279.501 177.904C262.106 177.23 227.575 175.207 225.536 181.275C223.497 187.343 242.281 187.972 252.866 190.714C263.407 193.411 279.501 177.904 279.501 177.904Z" fill="black"/>
<path d="M264.101 190.579C255.729 189.096 247.313 188.152 238.81 187.793C237.292 187.748 237.292 190.175 238.81 190.22C247.096 190.579 255.295 191.478 263.45 192.916C264.969 193.186 265.576 190.849 264.101 190.579Z" fill="black"/>
<path d="M242.367 195.613H237.942C236.424 195.613 236.424 198.04 237.942 198.04H242.367C243.886 198.04 243.886 195.613 242.367 195.613Z" fill="black"/>
<path d="M242.628 205.771C240.979 205.681 239.287 205.592 237.639 205.502C236.12 205.412 236.12 207.839 237.639 207.929C239.287 208.019 240.979 208.109 242.628 208.198C244.146 208.288 244.146 205.861 242.628 205.771Z" fill="black"/>
<path d="M233.3 179.792C232.476 181.23 230.611 180.916 230.22 179.343C229.83 177.814 227.574 178.489 227.965 179.972C228.876 183.613 233.517 184.242 235.339 181.006C236.077 179.702 234.038 178.444 233.3 179.792Z" fill="black"/>
<path d="M56.4801 51.9633C43.943 69.8072 26.3305 75.5154 23.9879 79.9651C21.6453 84.4149 36.5249 77.1335 39.2579 81.1787C41.9909 85.2239 34.9632 93.3593 57.2609 100.236C79.602 107.113 97.2146 54.3904 109.361 53.9859C121.508 53.5814 121.898 47.109 120.337 40.9963C118.775 34.9284 111.313 39.3782 95.2625 40.9963C79.1682 42.6593 56.4801 51.9633 56.4801 51.9633Z" fill="#B9FF1F"/>
<path d="M49.9728 67.6048C47.2399 72.1893 44.4635 76.8189 41.7305 81.4034C40.9497 82.7518 42.9452 83.9654 43.7694 82.617L52.0117 68.8183C52.7926 67.4699 50.7537 66.2564 49.9728 67.6048Z" fill="black"/>
<path d="M55.0483 67.5149C54.4844 70.0768 53.9204 72.6388 53.3565 75.2008C53.0094 76.729 55.2652 77.3582 55.6123 75.83C56.1762 73.268 56.7402 70.7061 57.3041 68.1441C57.6512 66.6159 55.3954 65.9867 55.0483 67.5149Z" fill="black"/>
<path d="M73.963 157.678C73.963 157.678 70.5359 159.97 66.0243 160.6C61.2525 161.229 55.3527 160.15 52.9233 158.263C52.9233 158.263 55.5696 206.49 56.0468 216.873C56.0468 217.278 56.2637 217.592 56.6107 217.772C58.9099 218.986 69.7117 222.087 76.4357 219.121C86.1096 214.851 88.1919 216.693 88.1919 208.153C88.1919 199.614 86.4133 149.678 86.4133 149.678C86.4133 149.678 78.6481 155.251 73.963 157.678Z" fill="#FF2B93"/>
<path d="M67.7161 148.06C62.7707 150.801 57.8253 153.498 52.8799 156.24C51.5351 156.959 52.7498 159.072 54.0512 158.352C58.9966 155.611 63.942 152.914 68.8874 150.172C70.2322 149.408 69.0175 147.34 67.7161 148.06Z" fill="#2E47FF"/>
<path d="M72.1844 156.824C66.7618 160.914 59.6474 160.6 54.3549 156.465C53.1403 155.521 51.9256 157.588 53.0969 158.532C59.2569 163.386 67.5427 163.297 73.7895 158.622C75.0042 157.678 73.3991 155.88 72.1844 156.824Z" fill="#2E47FF"/>
<path d="M74.223 148.644C72.1407 149.992 70.0585 151.341 67.9328 152.689C66.6314 153.498 67.8461 155.611 69.1041 154.802C71.1864 153.453 73.2687 152.105 75.3943 150.756C76.6957 149.902 75.5244 147.835 74.223 148.644Z" fill="#2E47FF"/>
<path d="M84.895 148.824L75.438 156.06C74.2234 156.959 75.3947 159.072 76.6093 158.173C79.7761 155.746 82.8995 153.363 86.0663 150.936C87.3244 149.992 86.1531 147.88 84.895 148.824Z" fill="#2E47FF"/>
<path d="M75.351 163.566C75.3076 161.993 72.965 161.993 73.0084 163.566C73.4422 180.871 73.9194 198.175 74.3532 215.48C74.3966 217.053 76.7392 217.053 76.6958 215.48C76.262 198.175 75.8282 180.871 75.351 163.566Z" fill="#2E47FF"/>
<path d="M56.4805 172.061C56.4805 178.983 55.6996 178.938 62.3369 179.343C68.9741 179.747 68.9741 180.152 68.9741 174.488C68.9741 168.825 67.4124 169.949 62.7273 169.634C56.8709 169.23 56.4805 169.23 56.4805 172.061Z" fill="#B9FF1F"/>
<path d="M169.53 86.932C149.575 86.932 150.139 90.7974 148.794 104.416C147.493 117.99 143.502 127.519 163.284 128.867C173.825 129.586 180.94 126.665 182.415 118.305C183.109 114.35 181.72 114.754 181.72 107.158C181.764 90.7974 186.666 86.932 169.53 86.932Z" fill="black"/>
<path d="M171.569 86.887C153.783 86.887 155.128 89.3142 153.957 101.495C152.785 113.675 149.271 122.17 166.884 123.384C184.497 124.597 183.325 118.53 183.325 103.922C183.325 89.3141 186.839 86.887 171.569 86.887Z" fill="#FFB612"/>
<path d="M174.606 110.979C171.179 105.585 167.752 100.191 164.325 94.7977C163.5 93.4942 161.462 94.7078 162.286 96.0112C165.713 101.405 169.14 106.798 172.567 112.192C173.391 113.496 175.43 112.282 174.606 110.979Z" fill="#FF2B93"/>
<path d="M176.081 93.0897C169.53 98.2136 164.151 104.461 159.987 111.788C159.206 113.136 161.245 114.35 162.025 113.001C165.93 106.034 171.049 100.011 177.252 95.1572C178.467 94.2583 177.296 92.1458 176.081 93.0897Z" fill="#FF2B93"/>
<path d="M205.666 59.6942C202.152 60.9077 200.634 63.245 198.639 63.3349C188.791 63.9192 189.051 60.9077 189.051 60.9077L189.225 126.305C189.225 127.294 189.832 128.193 190.743 128.598C193.476 129.721 199.593 131.474 205.71 127.878C213.952 123.024 216.295 124.238 216.295 110.844C216.295 97.4495 217.466 57.312 215.123 51.1992L205.666 59.6942Z" fill="black"/>
<path d="M199.376 48.3226C195.429 51.8734 191.915 55.8287 188.878 60.1886C187.967 61.4471 190.006 62.6606 190.917 61.4021C193.867 57.1771 197.251 53.4016 201.068 50.0306C202.196 49.0418 200.547 47.3338 199.376 48.3226Z" fill="black"/>
<path d="M205.58 48.2777C202.716 50.9745 199.853 53.6713 196.99 56.413C195.862 57.4918 197.554 59.1997 198.639 58.121C201.502 55.4242 204.365 52.7274 207.228 49.9856C208.356 48.9069 206.707 47.1989 205.58 48.2777Z" fill="black"/>
<path d="M210.308 48.6822C208.486 50.3002 206.664 51.9183 204.842 53.5364C203.714 54.5702 205.363 56.2782 206.491 55.2444C208.313 53.6263 210.135 52.0082 211.957 50.3901C213.085 49.3564 211.436 47.6484 210.308 48.6822Z" fill="black"/>
<path d="M205.103 58.93C200.721 62.0763 195.342 62.5707 190.527 60.0537C189.182 59.3346 188.011 61.4471 189.355 62.1662C194.821 65.0428 201.198 64.6832 206.274 61.0425C207.489 60.1436 206.317 58.0311 205.103 58.93Z" fill="black"/>
<path d="M206.534 67.38C206.534 65.8069 204.191 65.8069 204.191 67.38L204.278 126.215C204.278 127.789 206.621 127.789 206.621 126.215L206.534 67.38Z" fill="black"/>
<path d="M138.297 151.79C119.946 150.532 122.246 149.768 122.246 178.983C122.246 208.198 116.78 216.289 143.372 215.884C170.008 215.48 166.494 213.457 164.889 198.85C163.327 184.242 164.498 183.433 153.133 183.028C141.767 182.624 144.413 185.905 144.89 168.016C145.324 153.813 144.153 152.195 138.297 151.79Z" fill="#FFB612"/>
<path d="M145.758 151.79C127.408 150.532 129.707 149.768 129.707 178.983C129.707 208.198 124.241 216.289 150.834 215.884C177.469 215.48 173.955 213.457 172.35 198.85C170.745 184.242 171.96 183.433 160.594 183.028C149.228 182.624 151.875 185.905 152.352 168.016C152.786 153.813 151.614 152.195 145.758 151.79Z" fill="#B3BFE2"/>
<path d="M158.946 197.321C153.653 196.198 143.372 199.659 143.589 192.107C143.719 186.309 143.893 179.477 144.066 173.679C144.11 172.106 141.767 172.106 141.724 173.679C141.593 178.264 141.463 182.848 141.377 187.433C141.29 190.399 140.639 194.085 142.331 196.737C145.845 202.22 153.393 198.625 158.382 199.659C159.813 199.973 160.421 197.636 158.946 197.321Z" fill="black"/>
<path d="M148.404 178.713C147.233 175.882 146.062 173.05 144.891 170.218C144.5 169.274 143.329 169.589 142.852 170.218C140.639 173.23 138.427 176.241 136.214 179.208C135.303 180.466 137.342 181.68 138.253 180.421C140.032 177.994 141.811 175.567 143.589 173.185C144.544 175.432 145.455 177.68 146.409 179.927C146.973 181.365 148.968 180.152 148.404 178.713Z" fill="black"/>
<path d="M225.275 84.0103C218.247 85.2239 220.59 94.9773 226.446 93.7638C232.303 92.5502 230.047 83.2013 225.275 84.0103Z" fill="#B9FF1F"/>
<path d="M226.186 99.8316C219.158 98.3933 219.158 109.585 225.015 109.585C230.914 109.585 232.086 101.09 226.186 99.8316Z" fill="#FFB612"/>
<path d="M225.188 115.653C219.549 115.653 219.549 125.002 225.188 125.002C230.828 125.002 231.956 115.653 225.188 115.653Z" fill="#FFB612"/>
<path d="M104.156 194.04C89.4934 192.961 83.4634 202.94 80.6003 217.143C80.4702 217.772 80.904 218.356 81.5113 218.401C86.8471 218.941 109.882 221.098 120.467 218.491C120.944 218.356 121.248 217.907 121.248 217.413C120.988 213.277 119.209 195.164 104.156 194.04Z" fill="white"/>
<path d="M105.457 220.963C95.74 220.963 85.4588 220.019 81.3376 219.615C80.7303 219.57 80.1664 219.21 79.7759 218.716C79.4289 218.177 79.2554 217.547 79.3855 216.918C81.5979 205.996 86.5433 191.613 104.199 192.872C120.38 194.04 122.116 213.502 122.332 217.413C122.376 218.491 121.682 219.48 120.684 219.705C116.736 220.649 111.184 220.963 105.457 220.963ZM81.7714 217.233C86.7602 217.727 109.579 219.84 119.99 217.368C119.73 212.244 117.777 196.288 104.069 195.254C91.9225 194.4 85.025 201.142 81.7714 217.233Z" fill="black"/>
<path d="M104.893 193.95C104.893 193.95 104.85 193.95 104.893 193.95C104.59 202.221 104.286 210.491 103.939 218.716C103.896 220.289 106.238 220.289 106.282 218.716C106.585 210.671 106.889 202.67 107.193 194.625C106.412 194.445 105.631 194.22 104.893 193.95Z" fill="black"/>
<path d="M106.151 197.142C105.978 197.052 105.804 196.962 105.631 196.962C105.587 197.861 105.544 198.715 105.5 199.614C111.617 203.704 115.044 210.716 114.61 218.312C114.524 219.885 116.866 219.885 116.953 218.312C117.474 209.637 113.309 201.591 106.151 197.142Z" fill="black"/>
<path d="M150.617 246.493C149.966 246.493 149.445 245.954 149.445 245.325C149.445 245.235 149.228 236.785 149.228 232.739C149.228 232.2 149.055 231.751 148.708 231.391C146.756 229.503 140.292 229.863 135.13 230.177C132.006 230.357 129.1 230.537 127.017 230.267C123.026 229.773 121.508 227.795 121.378 226.132C121.291 224.739 121.638 223.57 122.506 222.626C124.328 220.649 128.102 219.795 134.826 219.93C137.082 219.975 139.685 220.109 142.461 220.244C148.838 220.559 160.638 221.098 162.026 219.57C162.069 218.851 161.939 218.581 161.809 218.446C160.681 217.188 154.694 217.053 142.678 216.828C137.038 216.693 130.011 216.559 121.074 216.289C120.424 216.289 119.903 215.705 119.946 215.03C119.946 214.356 120.467 213.862 121.161 213.862C130.097 214.131 137.125 214.311 142.765 214.401C157.341 214.671 161.765 214.761 163.544 216.783C164.412 217.727 164.455 218.986 164.412 219.795C164.195 223.301 157.558 223.346 142.418 222.671C139.685 222.536 137.082 222.402 134.826 222.357C129.1 222.267 125.542 222.896 124.284 224.289C123.894 224.739 123.721 225.233 123.764 225.907C123.807 226.492 124.805 227.526 127.364 227.84C129.23 228.065 132.093 227.885 135.086 227.705C141.29 227.346 147.753 226.941 150.443 229.593C151.267 230.402 151.701 231.481 151.701 232.694C151.701 236.695 151.875 245.145 151.918 245.235C151.831 245.954 151.311 246.493 150.617 246.493C150.66 246.493 150.66 246.493 150.617 246.493Z" fill="black"/>
<path d="M209.701 215.705C209.701 217.547 206.925 221.233 204.669 221.233C202.891 221.233 199.29 217.727 191.178 209.097C184.194 216.019 177.6 221.862 176.819 221.233C175.04 219.84 167.579 180.197 169.661 177.32C171.006 175.477 207.576 186.085 208.443 188.871C208.834 190.04 203.672 196.108 197.381 202.715C203.324 208.603 209.701 214.536 209.701 215.705Z" fill="white"/>
<path d="M176.862 222.536C176.515 222.536 176.298 222.357 176.124 222.222C174.389 220.873 171.483 204.917 170.659 200.063C168.229 186.13 167.578 178.219 168.75 176.601C169.27 175.882 170.138 175.657 173.565 176.196C179.985 177.275 208.443 184.916 209.614 188.467C209.875 189.276 210.352 190.759 199.116 202.67C199.941 203.479 200.765 204.288 201.546 205.052C209.007 212.334 210.872 214.356 210.872 215.66C210.872 218.042 207.706 222.447 204.669 222.447C202.5 222.447 199.507 219.66 191.134 210.805C181.07 220.784 178.077 222.536 176.862 222.536ZM191.178 207.884C191.481 207.884 191.785 208.019 192.002 208.243C196.687 213.233 203.064 220.019 204.669 220.019C206.144 220.019 208.356 217.143 208.487 215.839C207.879 214.671 203.454 210.356 199.897 206.85C198.813 205.771 197.685 204.693 196.6 203.614C196.383 203.389 196.253 203.075 196.253 202.76C196.253 202.445 196.383 202.131 196.6 201.906C203.932 194.175 206.665 190.489 207.229 189.276C203.758 186.624 174.91 178.039 170.528 178.354C169.4 182.759 175.3 214.626 177.383 219.84C178.901 218.896 183.109 215.435 190.397 208.243C190.57 208.019 190.874 207.884 191.178 207.884Z" fill="black"/>
<path d="M177.426 60.0536C173.305 60.1885 169.617 58.3906 169.27 53.6712C169.14 51.4688 169.227 49.4911 168.837 47.3337C168.62 46.1201 166.841 46.21 166.581 47.3337C165.323 52.6374 163.674 59.1098 157.341 59.8289C155.909 60.0087 155.866 62.2111 157.21 62.256C157.297 62.301 157.341 62.3459 157.427 62.3909C162.373 64.4135 165.409 68.6385 165.973 73.8523C165.973 74.3917 166.017 74.931 166.104 75.4704C166.277 76.9536 168.489 77.0885 168.446 75.4704C168.446 74.8861 168.403 74.3467 168.359 73.8074C168.273 67.8744 171.83 63.4696 177.773 62.3909C179.031 62.2111 178.727 60.0087 177.426 60.0536ZM166.884 68.4137C165.54 65.4922 163.414 63.11 160.638 61.402C163.674 60.0536 165.583 57.4018 166.928 54.2106C167.058 56.413 167.492 58.5704 168.967 60.1885C169.834 61.1324 170.919 61.7167 172.09 62.0313C169.661 63.5595 167.882 65.7619 166.884 68.4137Z" fill="#B9FF1F"/>
<path d="M136.561 23.6468C135.173 23.0175 133.785 22.3882 132.353 21.714C131.616 20.6803 131.182 19.5116 131.052 18.2531C130.748 16.8148 130.662 15.4215 130.618 13.9382C130.531 12.4999 128.493 12.8146 128.493 14.2079C128.536 19.0622 125.933 23.0175 121.638 24.9502C120.51 25.4446 121.031 27.1526 122.072 27.0627C122.202 27.1526 122.289 27.1976 122.463 27.2425C125.976 28.0066 128.102 30.8382 128.232 34.2093C128.145 34.9284 128.059 35.6475 128.059 36.4116C128.059 36.5015 128.059 36.5914 128.059 36.7263C128.059 38.0297 129.967 37.9398 130.184 36.7712C130.358 35.8723 130.401 35.0183 130.401 34.1643C131.052 30.3438 133.438 27.3324 137.082 25.7593C138.253 25.2648 137.776 23.5569 136.561 23.6468ZM129.49 30.164C128.536 28.1864 126.931 26.6132 124.762 25.6694C126.844 24.2311 128.449 22.2983 129.447 20.0061C130.184 22.3433 131.442 24.3659 133.525 25.3098C131.746 26.5683 130.401 28.2313 129.49 30.164Z" fill="#B9FF1F"/>
<path d="M30.2784 180.466C29.9748 180.556 29.6711 180.691 29.3674 180.781C22.1229 182.938 22.4265 170.623 21.6023 166.038C21.3854 164.915 19.52 164.87 19.3465 166.038C18.5222 172.061 17.2642 180.062 9.80271 180.781C8.32777 180.916 8.28439 183.343 9.80271 183.208C9.80271 183.208 9.80271 183.208 9.8461 183.208C10.0196 183.433 10.3233 183.612 10.7137 183.612C16.7436 183.747 18.4355 189.366 18.8693 194.669C18.7392 196.063 18.7825 197.546 18.9994 199.029V199.074C18.9994 199.164 18.9994 199.299 19.0428 199.389C19.2597 200.782 21.342 200.378 21.342 199.074C21.342 197.636 21.2986 196.108 21.1685 194.579C21.689 189.366 24.8125 185.186 29.7579 183.208C30.1483 183.073 30.5387 182.983 30.9291 182.803C32.2306 182.219 31.7534 180.017 30.2784 180.466ZM20.1273 189.321C19.1296 185.95 17.3076 183.163 14.1408 181.904C17.351 180.107 19.173 176.736 20.3009 172.96C21.0817 177.095 22.3398 181.455 25.2029 182.983C22.9471 184.646 21.2552 186.804 20.1273 189.321Z" fill="#B9FF1F"/>
<path d="M124.371 186.174C119.556 187.208 118.341 182.983 118.471 179.028C118.515 177.679 116.476 177.365 116.172 178.713C115.261 182.848 112.311 185.68 108.147 186.085C106.715 186.219 106.672 188.512 108.017 188.512C108.19 188.736 108.494 188.916 108.884 188.916C114.133 188.691 115.738 193.501 115.782 197.95C115.738 198.445 115.738 198.984 115.738 199.524C115.782 201.097 117.951 201.052 118.081 199.524C117.951 194.624 120.554 190.399 124.979 188.602C126.367 187.972 125.89 185.86 124.371 186.174ZM117.257 192.602C116.433 190.175 114.914 188.152 112.702 187.118C114.22 186.309 115.522 185.141 116.563 183.702C117.17 186.085 118.428 187.793 120.554 188.467C119.209 189.635 118.081 191.029 117.257 192.602Z" fill="#B9FF1F"/>
<path d="M125.065 130.89C116.606 130.89 105.848 129.991 93.571 129.002L87.8447 128.553L88.0183 126.126L93.7445 126.575C116.823 128.463 140.682 130.44 141.81 124.013C143.112 116.642 143.025 95.2022 142.982 78.0325C142.982 74.6166 142.982 71.3354 142.982 68.2341V67.7397C142.982 61.6719 142.982 58.0312 141.333 56.3682C139.121 54.1658 132.917 54.3455 120.554 54.7051C114.958 54.8849 108.017 55.0647 99.4274 55.1096V52.6825C107.973 52.6376 114.914 52.4128 120.51 52.278C134.349 51.8735 140.075 51.6937 142.982 54.6152C145.324 56.9974 145.324 60.8179 145.324 67.7397V68.2341C145.324 71.2905 145.324 74.6165 145.324 77.9876C145.368 96.191 145.454 116.822 144.11 124.418C143.285 129.317 136.258 130.89 125.065 130.89Z" fill="black"/>
<path d="M99.4709 53.8961C58.2158 56.1434 61.5561 53.8961 59.9076 89.7636C58.2592 125.631 50.0168 123.923 87.9316 127.339C125.846 130.755 129.143 129.047 127.495 93.1796C125.803 57.312 130.748 52.1881 99.4709 53.8961Z" fill="white"/>
<path d="M107.41 129.721C102.204 129.721 95.7835 129.227 87.8014 128.508L84.8949 128.238C68.5838 126.8 61.8164 126.171 58.693 122.305C56.1335 119.114 56.6107 114.305 57.4783 105.585C57.8687 101.36 58.3893 96.1011 58.693 89.6738C58.8231 87.0219 58.9099 84.5948 58.9966 82.3474C60.0378 55.1995 60.6885 54.6602 92.9638 52.9972C94.9593 52.9073 97.0849 52.7724 99.3407 52.6825C112.268 51.9634 119.556 52.3229 123.591 56.1884C127.712 60.1437 127.885 67.1554 128.189 79.9203C128.276 83.7857 128.362 88.1456 128.623 93.1347C129.447 110.934 128.97 120.327 123.981 125.272C120.684 128.508 115.565 129.721 107.41 129.721ZM99.5143 55.1097C97.2585 55.2445 95.1328 55.3344 93.0939 55.4243C77.4768 56.2333 69.6249 56.6378 65.8074 59.919C62.12 63.1102 61.8598 69.5825 61.3392 82.4373C61.2524 84.6847 61.1657 87.1118 61.0355 89.7636C60.7319 96.236 60.2113 101.54 59.8209 105.81C59.04 113.9 58.6062 118.305 60.5149 120.732C62.9877 123.833 69.9286 124.463 85.0685 125.811L87.975 126.081C107.757 127.879 117.604 128.193 122.333 123.474C126.627 119.159 127.018 110.304 126.237 93.2245C126.02 88.2355 125.89 83.8307 125.803 79.9652C125.543 67.8745 125.369 61.2224 121.942 57.9862C118.645 54.7051 111.531 54.4355 99.5143 55.1097Z" fill="black"/>
<path d="M97.5622 64.5484C68.15 66.1665 70.536 64.5485 69.3647 90.1232C68.1934 115.698 62.337 114.484 89.3199 116.911C116.346 119.339 118.689 118.125 117.517 92.5503C116.389 66.9756 119.903 63.3349 97.5622 64.5484Z" fill="#FFB612"/>
<path d="M122.636 111.023C120.38 111.023 120.38 114.664 122.636 114.664C124.892 114.664 124.892 111.023 122.636 111.023Z" fill="#F4F2F4"/>
<path d="M122.636 103.922C119.6 103.922 119.6 108.776 122.636 108.776C125.673 108.776 125.673 103.922 122.636 103.922Z" fill="#F4F2F4"/>
<path d="M136.345 78.3471C135.086 78.3921 134.002 79.4258 134.002 80.7743V81.1788C134.002 82.4373 135.086 83.6508 136.345 83.6059C137.603 83.561 138.687 82.5272 138.687 81.1788V80.7743C138.687 79.5157 137.603 78.3022 136.345 78.3471Z" fill="#F4F2F4"/>
<path d="M136.345 90.1232C132.831 90.1232 132.831 91.3368 132.831 107.158C132.831 122.979 131.66 122.979 135.174 122.979C138.687 122.979 138.687 120.552 138.687 105.944C138.687 91.3368 139.859 90.1232 136.345 90.1232Z" fill="#F4F2F4"/>
<path d="M43.1628 196.018C42.5121 196.018 41.9915 195.479 41.9915 194.804C41.9915 194.31 41.6011 146.756 41.6011 131.519C41.6011 117.541 43.5098 117.001 52.5764 116.732C53.9212 116.687 55.4395 116.642 57.1748 116.507C57.8255 116.462 58.3894 116.956 58.4328 117.631C58.4762 118.305 57.999 118.889 57.3483 118.934C55.5697 119.069 54.0514 119.114 52.6632 119.159C44.4642 119.429 43.9436 119.429 43.9436 131.519C43.9436 146.756 44.3341 194.31 44.3341 194.804C44.3341 195.434 43.8135 196.018 43.1628 196.018Z" fill="black"/>
<path d="M110.49 78.7966C107.714 72.9535 101.337 69.987 95.2632 71.4703C93.7883 71.8299 94.3956 74.1671 95.8706 73.8075C100.989 72.549 106.152 75.1559 108.451 80.0102C109.145 81.4035 111.184 80.19 110.49 78.7966Z" fill="white"/>
<path d="M77.9971 45.9405C81.5109 47.0192 86.0225 48.3676 90.3606 49.3115C90.5341 49.0868 90.7944 48.9519 91.1414 48.9969C95.3928 49.4463 99.4272 46.8394 103.028 44.2325C100.035 42.7043 93.8311 41.2211 84.6777 35.378C69.9283 25.9841 48.5849 30.2091 18.5655 34.8836C16.8736 35.1533 15.7457 36.9062 16.2229 38.6142L22.9469 63.4697C23.3373 64.8631 24.5954 65.762 25.9836 65.6272C49.1055 63.7844 61.5558 52.4578 72.9215 54.84C84.6777 57.2671 87.0203 58.4807 88.1916 53.6264C88.8857 50.7049 82.9425 47.8283 77.9971 45.9405Z" fill="black"/>
<path d="M81.7713 45.9405C78.5177 44.3224 75.2208 42.7493 71.9673 41.1312C70.6225 40.457 69.4078 42.5695 70.796 43.2437C74.0495 44.8618 77.3465 46.4349 80.6 48.053C81.9448 48.7272 83.1595 46.6147 81.7713 45.9405Z" fill="#FFB612"/>
<path d="M83.4632 49.4463C80.817 48.9969 78.995 51.5588 78.1273 53.7612C77.5634 55.1995 79.8192 55.8288 80.3832 54.3905C80.7736 53.4017 81.5111 52.1432 82.5956 51.8735C83.3764 51.6937 84.5911 52.5027 83.9838 53.3567C83.1161 54.6602 85.155 55.8737 86.0227 54.5703C87.4542 52.5477 85.6322 49.8059 83.4632 49.4463Z" fill="#FFB612"/>
<path d="M103.722 41.311C100.078 45.3113 95.436 47.8283 90.1435 48.4126C88.6686 48.5924 88.6252 51.0195 90.1435 50.8397C96.0433 50.1655 101.336 47.5136 105.414 43.019C106.411 41.8953 104.763 40.1873 103.722 41.311Z" fill="black"/>
</svg>
