<svg width="290" height="260" viewBox="0 0 290 260" fill="none" xmlns="http://www.w3.org/2000/svg">
<path d="M199.678 181.349C82.2032 181.947 86.0951 178.634 78.6697 187.837C71.2443 197.041 48.5073 252.124 60.4903 253.366C75.1875 254.885 231.94 257.186 239.16 254.103C246.381 250.973 235.115 219.635 229.481 204.403C222.005 184.202 216.065 181.257 199.678 181.349Z" fill="black"/>
<path d="M86.095 224.881H85.5317C83.3297 224.835 83.2785 227.873 85.4293 227.919H85.9926C88.2458 227.965 88.297 224.927 86.095 224.881Z" fill="#FDD05B"/>
<path d="M84.2524 230.956C82.0504 230.91 81.9992 233.947 84.15 233.993C86.352 234.039 86.4544 231.002 84.2524 230.956Z" fill="#FDD05B"/>
<path d="M103.609 206.658C103.558 206.658 103.507 206.658 103.455 206.658C102.175 206.52 101.1 206.52 100.127 206.474C98.2833 206.428 96.8494 206.382 95.8765 205.416C94.7498 204.219 94.9547 202.287 95.5692 198.467L95.8252 196.903C97.0031 189.632 97.6688 188.757 106.323 189.448C107.091 189.494 107.655 190.138 107.603 190.782C107.552 191.473 106.835 191.979 106.118 191.933C103.046 191.703 100.844 191.565 100.076 192.117C99.3587 192.669 99.0514 194.464 98.6418 197.225L98.3857 198.789C98.1809 200.032 97.6176 203.253 98.0785 203.759C98.2833 203.897 99.3587 203.943 100.28 203.943C101.202 203.943 102.38 203.989 103.814 204.127C104.582 204.219 105.145 204.818 105.043 205.508C104.941 206.198 104.326 206.658 103.609 206.658Z" fill="#FDD05B"/>
<path d="M207.513 238.871C206.744 238.871 206.13 238.319 206.13 237.674C206.079 236.984 206.693 236.432 207.461 236.386C209.1 236.34 210.585 236.34 211.968 236.34C215.501 236.34 218.062 236.34 218.984 235.373C219.649 234.683 219.752 233.257 219.342 230.956L219.086 229.345C218.113 223.363 218.113 223.363 207.922 223.593C207.922 223.593 207.922 223.593 207.871 223.593C207.103 223.593 206.488 223.041 206.488 222.396C206.488 221.706 207.103 221.154 207.82 221.108C219.496 220.878 220.52 221.476 221.749 229.023L222.005 230.588C222.568 233.717 222.261 235.696 220.981 236.984C219.24 238.825 216.116 238.825 211.865 238.825C210.585 238.825 209.151 238.825 207.513 238.871Z" fill="#FDD05B"/>
<path d="M64.639 203.621C60.4911 199.019 56.3431 194.464 52.1951 189.862C51.0173 188.573 49.0201 190.414 50.198 191.657C54.3459 196.258 58.4939 200.814 62.6419 205.416C63.8197 206.704 65.8169 204.91 64.639 203.621Z" fill="#2B71FF"/>
<path d="M64.0754 190.506C58.4936 194.234 52.9117 197.961 47.3299 201.688C45.896 202.655 47.2787 204.864 48.7638 203.897C54.3456 200.17 59.9274 196.442 65.5093 192.715C66.9431 191.749 65.5093 189.494 64.0754 190.506Z" fill="#2B71FF"/>
<path d="M104.633 220.97C95.9277 225.388 93.0087 234.407 97.3103 242.46C98.1297 243.933 100.588 242.644 99.7684 241.172C96.1325 234.361 98.7954 226.86 106.067 223.179C107.655 222.35 106.221 220.142 104.633 220.97Z" fill="#FDD05B"/>
<path d="M167.416 220.28C166.289 218.991 164.241 220.832 165.419 222.074C170.54 227.827 170.386 235.465 165.06 241.034C163.882 242.276 165.88 244.117 167.057 242.828C173.459 236.156 173.561 227.182 167.416 220.28Z" fill="#FDD05B"/>
<path d="M123.734 231.784C117.948 231.692 112.11 231.554 106.323 231.462C104.48 231.416 104.48 233.993 106.323 234.039C112.11 234.131 117.948 234.269 123.734 234.361C125.578 234.407 125.578 231.83 123.734 231.784Z" fill="#FDD05B"/>
<path d="M160.708 232.888C150.722 232.566 140.787 232.198 130.802 231.876C128.958 231.83 128.958 234.361 130.802 234.453C140.787 234.775 150.722 235.143 160.708 235.465C162.551 235.511 162.551 232.934 160.708 232.888Z" fill="#FDD05B"/>
<path d="M189.641 221.154C186.364 228.011 183.086 234.821 179.758 241.678C179.041 243.15 181.499 244.485 182.216 242.966C185.493 236.11 188.77 229.299 192.099 222.442C192.816 220.97 190.409 219.635 189.641 221.154Z" fill="#FDD05B"/>
<path d="M151.183 203.345C146.676 208.223 142.682 213.423 139.149 218.899C138.227 220.326 140.685 221.614 141.607 220.188C144.987 214.896 148.878 209.88 153.231 205.14C154.358 203.897 152.361 202.057 151.183 203.345Z" fill="#FDD05B"/>
<path d="M138.329 198.329C130.494 198.145 122.659 198.007 114.875 197.823C113.031 197.777 113.031 200.354 114.875 200.4C122.71 200.584 130.545 200.722 138.329 200.906C140.121 200.906 140.121 198.329 138.329 198.329Z" fill="#FDD05B"/>
<path d="M130.494 212.088C113.441 212.687 96.3372 212.733 79.2332 212.319C77.3897 212.273 77.3897 214.85 79.2332 214.896C96.3372 215.31 113.39 215.264 130.494 214.665C132.286 214.573 132.286 212.042 130.494 212.088Z" fill="#FDD05B"/>
<path d="M188.104 211.536C178.119 211.628 168.184 211.72 158.198 211.812C156.355 211.812 156.355 214.389 158.198 214.389C168.184 214.297 178.119 214.205 188.104 214.113C189.948 214.067 189.948 211.49 188.104 211.536Z" fill="#FDD05B"/>
<path d="M203.057 199.25C192.406 199.065 181.703 198.881 171.052 198.697C169.208 198.651 169.208 201.228 171.052 201.274C181.703 201.458 192.406 201.642 203.057 201.827C204.901 201.827 204.901 199.296 203.057 199.25Z" fill="#FDD05B"/>
<path d="M58.3398 92.9486C81.5889 86.9663 100.332 77.4407 107.04 87.1044C113.748 96.8141 87.0683 110.389 87.0683 110.389L58.3398 92.9486Z" fill="#2B71FF"/>
<path d="M235.883 87.7026C212.276 83.1008 192.867 74.6336 186.824 84.7115C180.782 94.7893 208.435 106.8 208.435 106.8L235.883 87.7026Z" fill="#2B71FF"/>
<path d="M82.7139 92.1663C86.5546 104.683 128.802 155.257 137.354 165.749C137.866 171.087 138.276 175.458 138.583 178.726C139.659 190.368 137.303 189.678 145.804 192.761C164.444 199.48 166.902 201.55 165.724 184.754C165.11 175.872 164.854 166.945 164.751 160.549C166.185 158.662 167.773 156.499 169.411 154.106C188.871 126.265 208.843 100.726 211.198 88.1167C213.554 75.5079 82.7139 92.1663 82.7139 92.1663Z" fill="#B9FF1F"/>
<path d="M211.2 88.1628C211.149 93.2707 202.085 95.8017 189.487 97.2282C186.722 97.5504 183.701 97.8265 180.628 98.0566C175.917 98.4247 170.898 98.7008 165.88 98.9309C165.777 98.9309 165.675 98.9309 165.573 98.9309C164.036 99.0229 162.551 99.069 161.015 99.161C160.042 99.207 159.018 99.253 158.045 99.299C155.894 99.3911 153.794 99.4831 151.746 99.6212C148.11 99.8052 144.218 100.035 140.224 100.265C137.919 100.403 135.615 100.495 133.311 100.634C129.675 100.818 126.039 100.956 122.454 101.048C120.15 101.14 117.897 101.186 115.643 101.186C98.437 101.232 83.996 99.4831 82.7157 92.2123C81.5891 86.0459 89.1681 83.8831 121.43 81.9964C123.632 81.8583 125.936 81.7663 128.395 81.6282C131.365 81.4902 134.488 81.3521 137.766 81.2141C139.865 81.1221 142.067 81.03 144.372 80.938C145.14 80.892 145.959 80.8459 146.779 80.8459C147.444 80.7999 148.11 80.7999 148.827 80.7539C149.8 80.7079 150.824 80.6619 151.9 80.6158C158.301 80.3858 166.033 80.1557 173.715 80.2017C178.785 80.2477 183.803 80.3858 188.463 80.6619C201.163 81.3982 211.2 83.515 211.2 88.1628Z" fill="black"/>
<path d="M252.116 54.0177C211.507 93.961 210.227 96.6761 203.569 98.977C196.912 101.278 158.198 100.173 156.866 108.549C155.125 119.501 188.053 116.648 188.053 116.648C188.053 116.648 163.319 122.952 161.424 128.474C158.556 136.896 169.464 138.69 169.464 138.69C169.464 138.69 163.012 155.717 212.378 142.372C250.733 132.018 272.19 104.269 283.405 87.9327C292.111 75.2318 289.704 76.0602 272.702 62.2548C256.418 49.0017 254.779 51.3947 252.116 54.0177Z" fill="#2B71FF"/>
<path d="M167.672 106.754C164.497 105.604 161.066 107.306 159.939 110.067C159.325 111.632 162.039 112.276 162.705 110.758C164.087 107.398 169.823 109.423 168.235 112.69C167.518 114.163 169.977 115.497 170.693 113.979C171.922 111.31 170.847 107.904 167.672 106.754Z" fill="black"/>
<path d="M176.428 130.775C173.714 125.759 165.674 127.6 165.367 132.984C165.265 134.641 168.132 134.641 168.235 132.984C168.388 129.947 172.587 129.487 173.97 132.064C174.738 133.536 177.196 132.248 176.428 130.775Z" fill="black"/>
<path d="M184.314 144.166C183.239 139.795 176.633 139.012 174.38 143.016C173.56 144.488 176.018 145.777 176.838 144.304C178.016 142.234 181.037 142.556 181.6 144.857C181.959 146.421 184.673 145.777 184.314 144.166Z" fill="black"/>
<path d="M200.19 113.473C195.479 115.037 190.665 115.865 185.646 116.004C183.803 116.05 183.803 118.627 185.646 118.581C190.921 118.442 195.991 117.568 200.958 115.958C202.648 115.359 201.931 112.92 200.19 113.473Z" fill="black"/>
<path d="M205.516 129.073C193.686 132.892 181.652 135.837 169.259 137.862C167.467 138.138 168.235 140.623 170.028 140.347C182.42 138.322 194.454 135.423 206.284 131.557C207.974 131.005 207.206 128.52 205.516 129.073Z" fill="black"/>
<path d="M36.4223 58.4814C79.6431 96.1699 81.1282 98.7929 87.8878 100.726C94.6475 102.658 133.259 99.4831 135.154 107.766C137.612 118.626 104.531 117.568 104.531 117.568C104.531 117.568 129.675 122.538 131.928 127.922C135.359 136.159 124.605 138.552 124.605 138.552C124.605 138.552 132.184 155.165 82.05 144.58C43.0796 136.343 19.7793 109.791 7.48901 94.0991C-2.08716 81.8584 0.370896 82.5946 16.4507 67.869C31.8647 53.6955 33.6058 55.9964 36.4223 58.4814Z" fill="#2B71FF"/>
<path d="M121.328 143.752C119.791 139.979 114.67 138.782 111.444 141.727C110.164 142.878 112.161 144.719 113.441 143.522C115.08 142.05 117.743 142.418 118.562 144.442C119.177 145.961 121.942 145.317 121.328 143.752Z" fill="black"/>
<path d="M126.551 127.462C123.786 125.943 120.099 126.956 118.46 129.395C117.487 130.821 119.945 132.11 120.918 130.683C121.737 129.441 123.683 128.888 125.117 129.671C126.551 130.499 126.756 132.294 125.885 133.49C124.912 134.871 127.37 136.159 128.343 134.779C129.982 132.386 129.316 128.934 126.551 127.462Z" fill="black"/>
<path d="M126.193 104.959C122.864 105.143 120.355 108.042 120.611 110.942C120.764 112.552 123.632 112.598 123.478 110.942C123.325 109.423 124.298 107.812 126.09 107.536C127.882 107.26 129.624 108.733 129.726 110.297C129.88 111.908 132.696 111.954 132.594 110.297C132.287 107.306 129.624 104.775 126.193 104.959Z" fill="black"/>
<path d="M125.117 137.356C112.724 137.126 100.69 135.285 88.9117 131.88C87.1706 131.373 86.4024 133.858 88.1435 134.365C100.178 137.862 112.468 139.703 125.117 139.933C126.96 139.979 126.96 137.402 125.117 137.356Z" fill="black"/>
<path d="M108.116 116.97C105.248 116.234 102.432 115.497 99.564 114.761C97.8229 114.301 97.0548 116.786 98.7959 117.246C101.664 117.982 104.48 118.719 107.348 119.455C109.089 119.915 109.857 117.43 108.116 116.97Z" fill="black"/>
<path d="M121.788 43.6176C121.071 45.9645 152.155 69.7557 155.791 68.3291C159.785 66.7645 162.397 29.6742 160.143 27.8796C159.119 27.0512 151.233 30.5946 142.374 32.9415C141.298 30.8707 140.325 29.122 139.66 27.6955C137.611 23.4158 136.894 21.8512 134.436 22.6335C130.442 23.876 129.52 24.0141 133.156 31.2849C133.822 32.6194 134.436 33.8619 135 35.0123C127.933 39.568 122.095 42.6052 121.788 43.6176Z" fill="white"/>
<path d="M155.587 69.5716C151.131 69.5716 138.124 59.8159 132.491 55.4442C119.791 45.5504 120.252 44.0318 120.457 43.2955C120.764 42.2831 122.147 41.4088 126.909 38.5097C128.702 37.4053 130.904 36.0708 133.259 34.5982C132.85 33.7239 132.389 32.7575 131.877 31.7911C129.777 27.6035 128.958 25.4867 129.726 23.9221C130.34 22.5876 131.877 22.1274 133.72 21.5292L133.925 21.4831C137.51 20.3787 138.739 22.8637 140.736 27.0053L140.838 27.2354C141.35 28.2477 141.965 29.4442 142.682 30.7787L143.04 31.469C146.42 30.5486 149.646 29.4442 152.258 28.5699C158.096 26.5911 159.837 26.0389 161.015 26.9592C163.575 29.03 161.732 51.3486 160.144 60.138C158.813 67.5469 157.533 69.0194 156.304 69.4796C156.099 69.5256 155.843 69.5716 155.587 69.5716ZM123.273 43.8477C125.885 48.1734 151.439 66.8106 155.228 67.1327C158.198 64.4177 160.4 33.6778 159.12 29.03C157.993 29.2141 155.484 30.0885 153.18 30.8708C150.21 31.8831 146.523 33.1256 142.631 34.138C141.965 34.3221 141.299 34.046 140.992 33.4938L140.121 31.8371C139.404 30.4566 138.739 29.2601 138.227 28.2017L138.124 27.9716C135.973 23.5539 135.769 23.4619 134.744 23.784L134.54 23.83C133.413 24.1982 132.338 24.5203 132.184 24.8424C131.774 25.6708 133.567 29.2141 134.283 30.6867C134.949 32.0212 135.564 33.2637 136.127 34.4601C136.383 35.0123 136.178 35.6106 135.666 35.9787C132.952 37.7274 130.392 39.292 128.343 40.5345C126.295 41.869 124.093 43.2035 123.273 43.8477Z" fill="black"/>
<path d="M77.9015 36.2088C68.7351 39.8442 68.6839 43.2495 73.4463 54.1096C76.1092 60.184 81.0765 57.745 87.1192 55.6742C93.162 53.6035 98.5389 50.9344 96.5418 44.3079C92.8547 32.2972 84.4051 33.6318 77.9015 36.2088Z" fill="black"/>
<path d="M80.5642 35.0583C71.3977 38.6937 70.3735 39.0619 75.136 49.922C77.7989 55.9964 82.7662 53.5574 88.8089 51.4866C94.8517 49.4158 98.0266 48.8636 96.0295 42.2831C92.3936 30.2725 87.119 32.4813 80.5642 35.0583Z" fill="#FEFDFB"/>
<path d="M148.007 38.6478C140.787 38.6017 141.145 48.0814 147.495 47.8053C155.177 47.4831 154.818 38.6938 148.007 38.6478Z" fill="#B9FF1F"/>
<path d="M160.707 44.8141C153.487 44.7681 153.845 54.2477 160.195 53.9716C167.877 53.6495 167.518 44.8601 160.707 44.8141Z" fill="#B9FF1F"/>
<path d="M173.408 51.3946C166.187 51.3486 166.546 60.8283 172.896 60.5522C180.577 60.23 180.219 51.4407 173.408 51.3946Z" fill="#B9FF1F"/>
<path d="M144.321 80.8459C143.604 84.1132 142.835 87.6566 142.119 91.384C141.504 94.6973 140.89 97.5964 140.224 100.219C137.919 100.357 135.615 100.449 133.311 100.588C129.675 100.772 126.039 100.91 122.454 101.002C123.888 96.2619 125.936 89.9575 128.343 81.5822C128.599 80.6159 128.906 79.6495 129.163 78.5911C133.669 62.4849 130.801 54.3398 137.305 52.1309C138.022 51.9008 143.655 55.2141 145.345 56.7327C149.8 60.8282 147.393 67.3628 144.321 80.8459Z" fill="black"/>
<path d="M141.657 55.6743C141.196 53.9716 140.172 52.7752 138.482 52.1769C129.367 48.9557 128.599 56.6406 123.58 74.4495C122.812 77.1185 122.095 79.6035 121.429 81.9044C118.818 90.6017 116.718 96.676 115.643 101.048C117.845 101.048 120.149 101.002 122.453 100.956C126.038 100.864 129.674 100.726 133.31 100.542C134.488 96.9982 135.563 92.6265 136.536 87.2884C136.946 85.1716 137.355 83.1008 137.765 81.122C140.223 69.3875 142.988 60.4601 141.657 55.6743Z" fill="#FDD05B"/>
<path d="M108.269 75.9221C100.639 81.7203 101.407 84.0212 105.914 89.1292C110.42 94.2371 114.414 90.6938 119.535 87.1504C124.656 83.607 127.473 82.3646 123.581 76.4743C118.511 68.8354 113.697 71.7805 108.269 75.9221Z" fill="#B9FF1F"/>
<path d="M204.44 33.5858C199.472 33.5858 194.351 32.0672 190.613 29.3061C186.516 26.269 184.468 21.9893 184.878 17.2955C185.39 10.9911 189.077 6.43533 194.915 4.7787C201.572 2.93799 209.561 5.19285 213.965 10.1628C217.6 14.2583 218.522 18.538 216.474 21.9893C214.682 24.9805 210.994 26.7291 207 26.407C204.644 26.2229 203.723 25.2106 203.415 24.3822C203.006 23.3698 203.313 22.1734 203.928 20.9769C200.343 22.3114 196.502 22.8176 193.993 21.7132C192.764 21.161 190.767 19.7805 191.074 16.3291C191.381 12.7398 194.044 10.5309 197.987 10.669C201.879 10.807 205.976 13.246 206.744 16.8353C207.359 16.4672 207.973 16.053 208.536 15.5929C209.1 15.1327 209.97 15.1787 210.482 15.6849C210.994 16.1911 210.994 16.9274 210.431 17.4336C207.768 19.7805 205.669 22.7256 206.027 23.5539C206.078 23.692 206.488 23.876 207.256 23.9221C210.073 24.1521 212.787 22.9097 214.016 20.8389C215.501 18.3079 214.682 14.9946 211.814 11.7734C208.127 7.63179 201.213 5.69905 195.734 7.21764C190.972 8.55215 188.053 12.2336 187.643 17.5256C187.233 22.4955 189.999 25.6247 192.405 27.4194C196.758 30.6867 203.467 31.9291 208.997 30.5946C209.714 30.4106 210.482 30.8247 210.687 31.469C210.892 32.1132 210.431 32.8035 209.714 32.9875C208.024 33.3557 206.232 33.5858 204.44 33.5858ZM197.68 13.1539C196.246 13.1539 194.095 13.6141 193.891 16.5132C193.686 18.7681 194.863 19.3203 195.273 19.4583C197.117 20.2867 200.753 19.6424 204.132 18.1698C204.132 18.1238 204.132 18.0318 204.132 17.9858C204.132 15.3628 200.855 13.246 197.936 13.1539C197.834 13.1539 197.731 13.1539 197.68 13.1539Z" fill="#FEFDFB"/>
<path d="M210.841 55.4442C211.251 58.0212 197.988 60.8743 196.144 63.8194C195.325 65.1079 192.048 72.3787 188.412 80.5698C185.749 86.5982 182.881 93.1327 180.628 98.0105C175.917 98.3787 170.898 98.6548 165.88 98.8849C165.777 98.8849 165.675 98.8849 165.572 98.8849C168.85 91.2459 171.461 85.0796 173.663 80.0636C182.011 60.7362 182.83 59.2176 182.983 56.4566C183.24 52.9132 180.218 46.6088 179.296 43.5256C178.375 40.3964 187.695 36.853 191.177 35.5185C194.659 34.184 189.231 47.6212 190.255 49.2318C191.279 50.7964 197.885 53.6955 199.678 52.8212C201.419 51.9008 204.491 39.7982 206.181 39.8902C207.871 39.9822 210.432 52.9132 210.841 55.4442Z" fill="#B3BFE2"/>
<path d="M184.878 92.6725C184.725 92.6725 184.571 92.6265 184.417 92.5805C183.701 92.3504 183.342 91.6141 183.598 90.9698C183.957 90.0955 192.713 68.9734 194.967 64.9238C196.605 61.9787 200.702 60.3221 204.338 58.8495C206.386 58.0212 208.332 57.2389 209.459 56.3645C211.149 55.1221 209.203 50.7504 207.359 46.5168C206.489 44.492 205.567 42.3752 204.85 40.3044C204.645 39.6601 205.055 38.9699 205.772 38.7398C206.489 38.5557 207.257 38.9238 207.513 39.5681C208.179 41.5929 209.1 43.6176 209.92 45.5964C212.327 51.1185 214.375 55.9044 211.2 58.2973C209.766 59.3557 207.667 60.23 205.465 61.1044C202.238 62.3929 198.602 63.8654 197.425 66.0283C195.223 69.9858 186.261 91.6141 186.159 91.8442C185.954 92.3504 185.442 92.6725 184.878 92.6725Z" fill="black"/>
<path d="M124.144 81.5362C119.638 85.5398 114.67 89.0371 109.242 92.0743C107.706 92.9486 109.14 95.1575 110.676 94.2831C116.309 91.1539 121.43 87.5185 126.141 83.3769C127.473 82.1805 125.476 80.3858 124.144 81.5362Z" fill="black"/>
<path d="M122.249 64.6478C119.381 55.8584 116.462 47.069 113.594 38.2796C113.082 36.715 110.317 37.3593 110.829 38.9699C113.492 47.023 116.155 55.0761 118.767 63.1292C113.748 61.8867 108.781 60.6442 103.762 59.4478C101.97 58.9876 101.253 61.4725 102.994 61.9327C108.832 63.3593 114.619 64.8318 120.456 66.2584C121.532 66.4885 122.556 65.6141 122.249 64.6478Z" fill="#B9FF1F"/>
<path d="M90.2435 41.2247L80.9746 44.0778C79.2335 44.63 80.0016 47.069 81.7427 46.5628C84.8153 45.5964 87.8879 44.63 91.0117 43.7097C92.7016 43.1575 91.9846 40.6725 90.2435 41.2247Z" fill="white"/>
<path d="M133.361 63.2212C130.749 74.0813 128.087 84.9415 125.475 95.8017C125.065 97.4123 127.831 98.1026 128.24 96.4919C130.852 85.6318 133.515 74.7716 136.126 63.9114C136.536 62.3008 133.771 61.6105 133.361 63.2212Z" fill="white"/>
<path d="M191.381 36.0707C190.152 40.3964 189.435 44.7681 189.179 49.1858C189.077 50.8424 191.945 50.8424 192.047 49.1858C192.252 44.9522 192.969 40.8106 194.147 36.715C194.556 35.1504 191.842 34.4601 191.381 36.0707Z" fill="black"/>
<path d="M163.882 74.7716C159.53 76.0601 155.382 77.6707 151.387 79.6495C151.541 79.9256 151.695 80.2477 151.848 80.5238C155.074 86.6442 158.147 92.8566 161.015 99.115C160.042 99.161 159.017 99.207 158.044 99.253C155.126 92.9946 152.053 86.7822 148.776 80.6619C148.622 80.3398 148.468 80.0636 148.315 79.7415C148.007 79.1433 148.11 78.361 148.827 77.9929C153.436 75.646 158.096 73.8052 163.114 72.2867C164.855 71.7805 165.623 74.2654 163.882 74.7716Z" fill="#FEFDFB"/>
<path d="M167.057 71.0442C164.394 70.3539 161.68 69.6636 159.017 68.9734C157.276 68.5132 156.508 70.9982 158.249 71.4583C160.4 72.0105 162.551 72.5628 164.65 73.115C163.831 74.6336 163.011 76.1982 162.192 77.7167C161.424 79.1893 163.882 80.4778 164.65 79.0052C165.726 76.9805 166.801 74.9557 167.876 72.9309C168.286 72.1946 167.979 71.2743 167.057 71.0442Z" fill="#FEFDFB"/>
</svg>
