<svg width="290" height="260" viewBox="0 0 290 260" fill="none" xmlns="http://www.w3.org/2000/svg">
<path d="M240.511 151.527C230.779 161.218 205.213 159.043 132.195 160.556C-1.42402 163.298 13.6213 160.982 12.6744 95.5561C12.5166 84.2579 11.9905 74.8034 12.1483 67.0979C12.1483 66.247 12.2009 65.3488 12.2535 64.5452C12.5692 56.2252 13.9369 50.127 17.8298 46.1561C29.1927 34.3852 62.1241 38.2616 154.448 37.3161C208.685 36.7488 230.99 34.2906 240.09 47.7634C242.616 51.5452 244.141 56.5088 245.035 63.127C245.141 63.9779 245.246 64.8288 245.351 65.6797C246.088 72.9125 246.245 81.9416 246.245 93.1925C246.245 127.323 248.56 143.443 240.511 151.527Z" fill="#B9FF1F"/>
<path d="M81.8518 162.542C45.764 162.542 27.9832 160.462 19.198 152.662C10.8336 145.24 10.9914 133.28 11.2019 113.472C11.2545 108.178 11.3071 102.127 11.2545 95.5561C11.2019 91.0652 11.0966 86.8579 10.9388 82.9815C10.781 76.9779 10.6232 71.7306 10.7284 67.0979C10.7284 66.1997 10.781 65.3488 10.8336 64.4979C11.2019 54.9488 12.9905 49.1815 16.7781 45.3052C25.8263 35.9452 46.7636 35.9924 97.3706 36.1343C113.678 36.1815 132.143 36.2288 154.501 35.9924C161.813 35.8979 168.599 35.8033 174.807 35.7088C214.84 35.047 233.094 34.7633 241.406 47.0543C243.931 50.8361 245.562 55.8943 246.509 62.9379C246.614 63.7888 246.719 64.6397 246.824 65.5379C247.614 72.8652 247.719 81.8943 247.719 93.1452C247.719 100.047 247.824 106.24 247.877 111.723C248.192 133.563 248.403 145.571 241.564 152.378C233.462 160.509 215.366 160.698 171.756 161.218C160.287 161.36 147.346 161.502 132.196 161.832C112.363 162.211 95.7398 162.542 81.8518 162.542ZM80.9049 38.6397C42.9759 38.6397 26.0894 39.4906 18.8823 46.9597C15.5682 50.3634 13.99 55.6579 13.6217 64.5924C13.5691 65.4434 13.5691 66.247 13.5165 67.1452C13.4113 71.7779 13.5691 76.9306 13.727 82.9343C13.8322 86.8579 13.9374 91.0652 14.0426 95.5561C14.1478 102.174 14.0952 108.225 13.99 113.52C13.7796 132.665 13.6217 144.2 21.1444 150.865C32.5073 160.934 63.3871 160.745 132.143 159.28C147.294 158.949 160.235 158.807 171.703 158.665C214.472 158.145 232.147 157.956 239.407 150.676C245.457 144.625 245.299 132.949 244.983 111.771C244.878 106.287 244.825 100.094 244.825 93.1924C244.825 81.9888 244.668 73.0543 243.931 65.8215C243.826 64.9706 243.721 64.1197 243.615 63.2688C242.721 56.6034 241.196 51.8761 238.881 48.4252C231.463 37.4106 213.683 37.6943 174.807 38.3088C168.599 38.4033 161.813 38.4979 154.501 38.5924C132.143 38.8288 113.626 38.7815 97.318 38.7343C91.4261 38.687 86.0077 38.6397 80.9049 38.6397Z" fill="black"/>
<path d="M127.303 117.254C114.099 117.254 48.2361 117.16 45.3427 114.938C43.3437 113.378 42.9755 108.792 42.9229 99.0543V98.487C42.9229 90.1197 43.0807 84.4943 45.8688 82.6979C49.6038 80.287 71.8562 80.287 108.102 80.6179C121.095 80.7597 133.353 80.8543 143.085 80.7124V81.9888V80.7124C170.65 80.3343 202.635 80.9015 207.79 82.9343C210.368 83.9743 210.631 88.3233 210.894 95.9343C210.947 96.7852 210.947 97.6833 210.999 98.5343C211.052 99.4797 211.104 100.378 211.157 101.276C211.525 108.272 211.63 112.622 209.631 114.418C207.106 116.782 163.443 117.254 127.303 117.254ZM47.1313 112.905C50.7085 113.898 85.639 114.702 127.356 114.702C171.492 114.702 204.423 113.803 207.79 112.527C208.895 111.298 208.579 105.814 208.369 101.418C208.316 100.52 208.264 99.5743 208.211 98.6761C208.159 97.7779 208.158 96.927 208.106 96.0288C207.948 92.0579 207.738 86.007 206.633 85.2506C203.319 83.927 179.909 82.7452 143.137 83.2652C133.353 83.407 121.095 83.2652 108.049 83.1706C82.5352 82.9343 50.7611 82.6506 47.5522 84.7306C45.711 85.9124 45.7636 93.4761 45.7636 98.4397V99.007C45.8162 102.789 45.8688 111.534 47.1313 112.905Z" fill="black"/>
<path d="M157.763 104.112C159.814 106.051 161.866 107.989 163.918 109.974C169.547 109.927 174.755 109.832 179.436 109.738C171.546 102.458 163.76 95.0833 156.079 87.6143C151.503 87.6143 146.716 87.6615 141.823 87.7088C141.56 87.7088 141.297 87.7088 140.981 87.7088C146.768 93.0033 152.029 98.7233 157.763 104.112Z" fill="#FF1F8A"/>
<path d="M154.133 104.254C148.399 98.7706 143.085 93.0034 137.193 87.7088C107.629 87.8034 58.1265 86.6688 53.6024 88.7961C51.3403 89.8834 51.3929 94.6579 51.4455 98.9597C51.4455 103.687 51.6034 107.942 53.1816 108.84C55.1806 109.927 116.887 110.447 160.182 110.022C158.131 108.083 156.132 106.192 154.133 104.254Z" fill="#FF1F8A"/>
<path d="M245.351 65.6324C167.599 64.8288 89.9002 65.3015 12.1484 67.0506C12.1484 66.1997 12.201 65.3015 12.2536 64.4979C89.8476 62.7488 167.442 62.2761 245.035 63.0324C245.141 63.9306 245.246 64.7815 245.351 65.6324Z" fill="black"/>
<path d="M223.415 56.367C219.785 52.9633 216.102 49.5597 212.473 46.1561C211.21 44.9742 209.158 46.7706 210.474 47.9524C214.103 51.3561 217.786 54.7597 221.416 58.1633C222.678 59.3924 224.677 57.5488 223.415 56.367Z" fill="#4A1FFF"/>
<path d="M220.521 46.487C216.733 49.8906 212.946 53.2943 209.105 56.7452C207.79 57.927 209.842 59.7234 211.104 58.5416L222.52 48.2834C223.835 47.1488 221.783 45.3052 220.521 46.487Z" fill="#4A1FFF"/>
<path d="M198.743 52.1124H184.486C182.645 52.1124 182.645 54.6652 184.486 54.6652H198.743C200.531 54.6652 200.531 52.1124 198.743 52.1124Z" fill="#4A1FFF"/>
<path d="M116.098 133.611C113.889 133.611 112.574 132.807 111.837 132.145C110.89 131.294 110.417 130.112 110.417 128.836C110.417 126.142 112.732 123.4 116.572 123.4C120.097 123.4 122.043 126.047 122.043 128.505C122.043 130.916 120.202 133.611 116.098 133.611ZM116.572 125.905C114.415 125.905 113.258 127.371 113.258 128.789C113.258 129.403 113.468 129.971 113.889 130.349C114.362 130.822 115.099 131.058 116.098 131.058C118.361 131.058 119.202 129.734 119.202 128.505C119.202 127.229 118.361 125.905 116.572 125.905Z" fill="#FF1F8A"/>
<path d="M128.934 145.098C126.725 145.098 125.41 144.294 124.673 143.632C123.726 142.782 123.253 141.6 123.253 140.323C123.253 137.629 125.568 134.887 129.408 134.887C132.932 134.887 134.879 137.534 134.879 139.992C134.879 142.451 132.985 145.098 128.934 145.098ZM129.408 137.44C127.251 137.44 126.094 138.905 126.094 140.323C126.094 140.938 126.304 141.505 126.725 141.883C127.198 142.356 127.935 142.592 128.934 142.592C131.196 142.592 132.038 141.269 132.038 140.04C131.986 138.763 131.196 137.44 129.408 137.44Z" fill="#FF1F8A"/>
<path d="M132.301 122.927C125.778 129.592 119.255 136.258 112.732 142.923C111.522 144.152 113.521 145.996 114.731 144.72C121.254 138.054 127.777 131.389 134.3 124.723C135.51 123.542 133.511 121.698 132.301 122.927Z" fill="#FF1F8A"/>
<path d="M34.1907 142.309C26.2472 134.934 18.3037 127.607 10.3076 120.232C9.04503 119.051 6.99338 120.847 8.30853 122.029C16.252 129.403 23.9325 136.731 31.8761 144.058C33.1912 145.287 35.5059 143.491 34.1907 142.309Z" fill="black"/>
<path d="M15.8311 153.276C11.7279 152.142 7.62459 151.007 3.46871 149.872C1.73271 149.4 0.943605 151.858 2.73221 152.331C6.83548 153.465 10.9388 154.6 15.0946 155.734C16.8306 156.207 17.5671 153.749 15.8311 153.276Z" fill="black"/>
<path d="M197.112 126.142C192.693 129.545 188.221 132.949 183.802 136.352C182.382 137.44 184.434 139.236 185.801 138.149C189.484 135.312 193.798 132.003 199.111 127.938C200.531 126.898 198.48 125.102 197.112 126.142Z" fill="black"/>
<path d="M138.718 224.327C130.459 224.327 126.303 223.665 123.831 221.538C121.621 219.647 121.358 216.905 121.358 214.258C121.358 208.538 126.461 205.749 138.35 204.898C159.813 203.338 195.217 204.803 221.1 205.843C237.933 206.552 251.19 207.072 255.083 206.6C258.555 206.174 260.607 205.465 261.185 204.425C262.027 203.007 260.449 200.312 258.66 197.145C257.345 194.876 255.925 192.323 254.873 189.487C254.61 188.825 255.03 188.069 255.767 187.88C256.503 187.643 257.345 188.022 257.555 188.683C258.555 191.331 259.975 193.789 261.185 195.963C263.447 199.887 265.183 203.007 263.71 205.56C262.606 207.403 259.975 208.538 255.451 209.105C251.295 209.578 237.933 209.058 220.942 208.349C195.165 207.309 159.866 205.843 138.561 207.403C124.199 208.443 124.199 212.225 124.199 214.258C124.199 217.142 124.673 218.702 125.83 219.694C128.881 222.342 138.245 221.963 158.656 221.207L161.655 221.112C195.007 219.836 286.173 221.112 287.12 221.112C287.909 221.112 288.54 221.727 288.54 222.436C288.54 223.145 287.909 223.712 287.067 223.712C286.173 223.712 195.059 222.436 161.812 223.712L158.814 223.807C150.239 224.043 143.716 224.327 138.718 224.327Z" fill="black"/>
<path d="M240.038 148.549C225.045 148.549 219.154 162.211 222.468 172.422C229.254 193.316 224.519 196.2 252.979 196.2C274.706 196.2 273.864 188.352 263.763 163.014C258.082 148.785 245.772 148.549 240.038 148.549Z" fill="#4A1FFF"/>
<path d="M259.976 160.272C248.297 163.345 236.618 166.418 224.94 169.491C223.204 169.963 223.94 172.422 225.676 171.949C237.355 168.876 249.033 165.803 260.712 162.731C262.501 162.258 261.764 159.8 259.976 160.272Z" fill="#B9FF1F"/>
<path d="M237.249 149.731C235.987 148.502 233.988 150.345 235.25 151.527C239.511 155.592 242.194 160.462 243.457 165.898C243.825 167.505 246.56 166.843 246.192 165.236C244.824 159.374 241.826 154.127 237.249 149.731Z" fill="#B9FF1F"/>
<path d="M24.0375 172.563C16.8831 174.691 16.4622 172.138 20.1972 185.374C23.9323 198.611 22.9854 201.163 27.7199 202.014C32.4545 202.865 113.678 198.847 117.939 200.974C122.2 203.102 137.877 201.447 140.718 199.745C143.558 198.043 168.283 199.84 191.062 199.887C213.84 199.934 230.464 204.803 225.308 195.018C221.889 188.494 217.154 180.316 214.366 175.542C212.946 173.083 210.105 171.571 207.054 171.618L24.0375 172.563Z" fill="#FF1F8A"/>
<path d="M119.886 169.018C111.363 156.632 83.7978 140.418 60.0725 147.698C36.3471 154.931 25.8785 159.658 19.7236 162.211C19.7236 162.211 26.352 179.276 26.8255 187.407C26.8255 187.407 28.2458 193.363 32.0334 195.065C35.8211 196.767 52.4446 195.916 61.0194 195.065C67.9108 194.356 117.992 192.512 119.412 195.916C120.832 199.32 134.615 198.469 136.983 195.491C139.35 192.512 145.031 194.214 174.017 194.64C203.529 195.065 218.154 198.894 220.1 196.767C221.994 194.64 210.105 175.447 207.738 169.018C205.37 162.636 204.424 166.04 203.95 162.636C203.477 159.232 193.008 157.956 193.008 157.956C193.008 157.956 193.955 150.723 191.114 149.825C188.273 148.974 142.664 144.247 119.886 169.018Z" fill="#B9FF1F"/>
<path d="M126.619 199.367C125.62 199.367 124.673 199.32 123.831 199.225C120.833 198.894 118.886 197.949 118.15 196.531C114.152 194.214 70.7518 195.349 61.1249 196.294C54.8647 196.909 35.9792 198.232 31.3498 196.152C26.9835 194.214 25.4579 187.88 25.3527 187.596C25.3527 187.549 25.3527 187.454 25.3001 187.407C24.8267 179.56 18.3035 162.778 18.2509 162.589C17.9879 161.974 18.3561 161.265 18.9874 160.982L20.9864 160.131C27.3518 157.436 38.0834 152.945 59.4941 146.422C82.0621 139.52 109.522 153.56 119.938 166.843C143.296 143.349 187.379 147.32 191.483 148.549C194.586 149.494 194.692 154.174 194.481 156.774C197.795 157.294 204.792 158.854 205.265 162.4C205.371 163.203 205.476 163.392 205.476 163.392C205.476 163.392 205.529 163.392 205.581 163.44C206.581 164.007 207.58 164.858 208.948 168.545C209.79 170.814 211.894 174.832 214.156 179.087C220.784 191.614 222.573 195.774 221.047 197.476C219.627 199.083 216.05 198.705 207.422 197.902C200.005 197.192 188.747 196.058 173.86 195.822C164.443 195.68 157.394 195.396 152.291 195.207C141.875 194.782 139.14 194.734 138.035 196.152C136.404 198.374 131.038 199.367 126.619 199.367ZM97.16 192.607C119.57 192.607 120.307 194.309 120.78 195.443C120.938 195.774 121.78 196.389 124.252 196.672C128.987 197.24 134.826 196.058 135.878 194.687C137.93 192.087 141.349 192.229 152.607 192.702C157.71 192.891 164.706 193.174 174.123 193.316C189.168 193.552 200.478 194.64 207.948 195.396C212.999 195.869 217.733 196.342 218.943 195.963C218.996 193.931 214.524 185.422 211.789 180.222C209.527 175.872 207.37 171.807 206.475 169.396C205.318 166.229 204.634 165.851 204.266 165.614C203.372 165.094 202.898 164.527 202.635 162.731C202.425 161.312 197.375 159.705 192.956 159.138C192.167 159.043 191.64 158.429 191.746 157.72C192.167 154.6 191.693 151.243 190.799 150.96C187.327 149.92 142.875 146.138 121.096 169.774C120.78 170.105 120.359 170.247 119.886 170.247C119.412 170.2 118.992 170.011 118.781 169.632C111.101 158.523 84.3767 141.552 60.5988 148.832C39.2933 155.356 28.7195 159.8 22.4068 162.447L21.5651 162.778C23.0381 166.702 27.8778 179.985 28.3513 187.123C28.7721 188.683 30.2451 192.702 32.7702 193.836C35.9266 195.254 51.4453 194.64 60.9144 193.694C64.5443 193.316 78.9057 192.702 92.3203 192.56C94.0037 192.607 95.6344 192.607 97.16 192.607Z" fill="black"/>
<path d="M121.411 166.56C120.675 165.047 118.255 166.371 118.939 167.836C123.095 176.582 125.725 185.611 126.935 195.018C127.145 196.625 129.986 196.672 129.776 195.018C128.566 185.138 125.778 175.683 121.411 166.56Z" fill="#4A1FFF"/>
<path d="M193.429 152.378C193.324 150.723 190.483 150.723 190.588 152.378C190.851 156.538 191.114 160.698 191.43 164.858C191.588 166.985 193.587 175.542 192.272 177.338C190.746 179.465 185.328 178.189 182.592 178.236C178.436 178.331 174.228 178.614 170.124 179.087C155.29 180.789 141.138 185.138 128.092 191.662C126.514 192.465 127.934 194.687 129.513 193.883C149.292 184.051 171.334 179.702 193.902 181.12C194.639 181.167 195.375 180.505 195.323 179.843C194.639 170.672 194.06 161.502 193.429 152.378Z" fill="#4A1FFF"/>
<path d="M208.948 187.36C206.844 178.283 204.739 169.254 202.688 160.178C202.319 158.571 199.584 159.232 199.952 160.84C201.899 169.207 203.845 177.622 205.739 185.989C179.804 180.931 153.028 183.862 129.092 194.309C127.461 195.018 128.881 197.24 130.512 196.531C154.395 186.083 181.33 183.436 207.159 188.92C208.317 189.156 209.211 188.305 208.948 187.36Z" fill="#4A1FFF"/>
<path d="M124.725 191.662C109.101 180.647 92.0041 169.727 71.5929 168.12C54.7064 166.796 37.5042 173.131 29.4554 187.029C28.6137 188.494 31.0862 189.771 31.9279 188.305C40.3975 173.698 59.0201 168.451 76.3274 171.24C94.0031 174.076 108.943 183.72 122.779 193.458C124.094 194.498 126.145 192.702 124.725 191.662Z" fill="#4A1FFF"/>
<path d="M96.3705 180.789C77.4323 172.989 56.0743 176.96 42.3967 191.142C41.1868 192.371 43.1858 194.214 44.3957 192.938C57.179 179.702 77.1167 175.683 94.8975 183.011C96.5809 183.672 98.0013 181.451 96.3705 180.789Z" fill="#4A1FFF"/>
<path d="M89.3216 185.091C78.0639 182.632 66.9114 184.902 57.9158 191.378C56.4954 192.418 58.4945 194.214 59.9148 193.174C68.1214 187.312 78.3796 185.327 88.5851 187.549C90.3737 187.927 91.1102 185.469 89.3216 185.091Z" fill="#4A1FFF"/>
<path d="M63.019 157.531C54.339 159.989 45.659 162.447 36.979 164.905C35.243 165.378 35.9795 167.883 37.7155 167.363C46.3955 164.905 55.0755 162.447 63.7555 159.989C65.4915 159.469 64.755 157.011 63.019 157.531Z" fill="#4A1FFF"/>
<path d="M55.969 153.04C49.1302 155.214 42.2914 157.436 35.4526 159.611C33.7166 160.178 34.4531 162.636 36.1891 162.069C43.0279 159.894 49.8667 157.672 56.7055 155.498C58.4415 154.978 57.705 152.472 55.969 153.04Z" fill="#4A1FFF"/>
<path d="M128.934 159.611C133.195 171.996 135.562 180.931 135.562 180.931L141.243 171.523L148.819 175.778L143.611 152.331L128.934 159.611Z" fill="#FF1F8A"/>
<path d="M69.6467 156.963C70.6462 162.022 68.6998 164.48 76.4855 165C84.2712 165.52 86.0598 164.811 85.3233 158.429C84.5868 152.047 83.8503 153.465 76.9063 152.378C69.9623 151.291 68.9102 153.182 69.6467 156.963Z" fill="black"/>
<path d="M91.4787 164.243C92.4782 169.302 90.5318 172.138 98.3175 172.28C108.944 172.469 110.206 172.422 109.417 166.04C108.681 159.658 107.524 160.934 98.7384 159.658C91.7944 158.618 90.7422 160.462 91.4787 164.243Z" fill="black"/>
<path d="M176.647 152.567C164.653 153.654 166.284 153.796 166.284 158.949C166.284 164.102 162.391 162.92 155.92 163.487C149.45 164.102 151.186 166.843 152.028 172.28C152.869 177.763 155.184 175.542 173.596 174.407C192.008 173.272 187.694 173.178 186.537 164.054C185.275 154.08 186.59 151.622 176.647 152.567Z" fill="black"/>
<path d="M177.068 158.334C177.016 156.68 174.175 156.68 174.228 158.334C174.333 161.312 174.438 164.338 174.543 167.316C170.598 167.6 166.652 167.836 162.654 168.12C160.813 168.262 160.813 170.814 162.654 170.672C167.073 170.389 171.545 170.058 175.964 169.774C176.7 169.727 177.437 169.207 177.384 168.498C177.279 165.094 177.174 161.738 177.068 158.334Z" fill="#B9FF1F"/>
<path d="M164.548 171.098C162.286 170.956 162.286 168.025 164.548 167.883C166.39 167.789 166.39 165.189 164.548 165.331C162.128 165.472 159.919 167.174 159.919 169.491C159.919 171.807 162.076 173.509 164.548 173.651C166.337 173.792 166.337 171.192 164.548 171.098Z" fill="#B9FF1F"/>
<path d="M102.263 163.109C101.947 161.502 99.2116 162.163 99.5273 163.771C99.8429 165.331 100.159 166.891 100.474 168.451C100.79 170.058 103.525 169.396 103.21 167.789L102.263 163.109Z" fill="#B9FF1F"/>
<path d="M79.537 160.982C78.2744 161.076 76.8541 160.32 76.8541 159.043C76.8541 157.862 78.3271 156.963 79.5896 157.2C81.3782 157.531 82.1673 155.072 80.3261 154.742C77.4327 154.222 74.2764 155.923 74.0134 158.712C73.8029 161.407 76.5384 163.771 79.537 163.534C81.3782 163.392 81.3782 160.84 79.537 160.982Z" fill="#B9FF1F"/>
<path d="M103.262 164.291H99.4747C97.6334 164.291 97.6334 166.843 99.4747 166.843H103.262C105.103 166.891 105.103 164.291 103.262 164.291Z" fill="#B9FF1F"/>
</svg>
